<?xml version="1.0" standalone="no"?>
<!DOCTYPE svg PUBLIC "-//W3C//DTD SVG 20010904//EN"
 "http://www.w3.org/TR/2001/REC-SVG-20010904/DTD/svg10.dtd">
<svg version="1.0" xmlns="http://www.w3.org/2000/svg"
 width="707.000000pt" height="353.000000pt" viewBox="0 0 707.000000 353.000000"
 preserveAspectRatio="xMidYMid meet">

<g transform="translate(0.000000,353.000000) scale(0.100000,-0.100000)"
fill="#000000" stroke="none">
<path d="M3361 1430 c-6 -28 -11 -57 -11 -64 0 -15 54 -41 68 -32 5 3 33 -53
62 -124 54 -134 66 -148 116 -138 17 3 41 90 84 302 15 73 14 76 -25 76 -38 0
-38 1 -72 -152 -10 -43 -20 -78 -23 -78 -4 0 -14 22 -24 49 -10 28 -33 85 -51
128 -34 77 -35 78 -74 81 l-39 3 -11 -51z"/>
<path d="M3177 1463 c-31 -5 -54 -34 -63 -80 -5 -25 -2 -33 15 -43 12 -6 26
-8 31 -5 6 3 10 0 10 -8 0 -15 20 -27 45 -27 12 0 21 29 40 133 7 36 6 37 -21
36 -16 -1 -41 -4 -57 -6z"/>
<path d="M3777 1358 c-23 -86 -70 -308 -66 -311 2 -2 31 -11 64 -21 33 -10 93
-34 134 -52 76 -35 90 -34 91 7 0 15 -110 73 -177 93 -13 4 -23 10 -22 14 0 4
15 72 33 152 l34 145 -22 12 c-41 24 -54 16 -69 -39z"/>
<path d="M3364 1280 c-41 -18 -41 -18 -57 -101 -10 -46 -17 -88 -17 -92 0 -5
16 -7 36 -5 l37 3 23 104 c13 58 23 106 21 107 -1 1 -20 -6 -43 -16z"/>
<path d="M3171 1182 c-34 -17 -40 -27 -54 -99 -6 -32 -6 -32 26 -26 18 3 35 9
39 12 8 7 32 121 26 126 -2 2 -18 -4 -37 -13z"/>
<path d="M3010 1134 l-55 -10 1 -53 c1 -29 4 -54 6 -56 2 -3 17 -1 34 3 22 6
35 20 52 56 32 67 29 73 -38 60z"/>
<path d="M2858 1113 c-12 -3 -20 -27 -31 -86 -9 -45 -14 -83 -12 -85 7 -7 63
28 69 44 4 10 9 44 13 76 6 60 4 63 -39 51z"/>
</g>
</svg>
